<?xml version="1.0" encoding="iso-8859-1"?>
<!-- Generator: Adobe Illustrator 18.0.0, SVG Export Plug-In . SVG Version: 6.00 Build 0)  -->
<!DOCTYPE svg PUBLIC "-//W3C//DTD SVG 1.1//EN" "http://www.w3.org/Graphics/SVG/1.1/DTD/svg11.dtd">
<svg version="1.1" id="Capa_1" xmlns="http://www.w3.org/2000/svg" xmlns:xlink="http://www.w3.org/1999/xlink" x="0px" y="0px"
	 viewBox="0 0 296.316 296.316" style="enable-background:new 0 0 296.316 296.316;" xml:space="preserve">
<g>
	<path d="M96.954,201.338c-9.232,2.851-15.66,8.596-12.813,17.837c2.847,9.241,12.641,14.422,21.873,11.573
		c9.234-2.848,14.412-12.648,11.566-21.893C114.733,199.615,106.188,198.489,96.954,201.338z"/>
	<path d="M201.505,201.733c-8.987-3.553-17.591-3.095-21.142,5.903c-3.555,8.99,0.853,19.16,9.838,22.715
		c8.984,3.556,19.151-0.854,22.704-9.846C216.454,211.51,210.488,205.289,201.505,201.733z"/>
	<path d="M295.608,123.771c0-19.007-12.38-35.129-29.373-40.467c0.232-1.79,0.351-3.603,0.351-5.429
		c0-23.405-18.825-42.446-41.966-42.446c-0.741,0-1.479,0.021-2.215,0.058C218.881,15.65,200.653,0,179.476,0
		c-11.955,0-22.964,4.997-30.923,12.914C140.475,4.997,129.299,0,117.163,0C95.677,0,77.182,15.65,73.607,35.487
		c-0.731-0.038-1.466-0.058-2.203-0.058c-23.129,0-41.947,19.041-41.947,42.446c0,1.816,0.117,3.618,0.351,5.403
		c-17.031,5.258-29.099,21.172-29.099,40.492c0,11.379,4.642,22.078,13.071,30.126c3.736,3.569,7.997,6.395,12.586,8.424
		c1.074,15.285,3.212,46.589,3.598,58.987c0.668,21.473,9.434,40.596,24.684,54.467c14.805,13.467,34.827,20.541,56.381,20.541
		h74.221c20.665,0,40.918-8.666,57.028-25.022c14.532-14.753,23.518-33.396,24.039-50.157c0.383-12.352,2.506-43.386,3.583-58.733
		C285.014,155.883,295.608,141.071,295.608,123.771z M179.196,26.421c8.962,0,17.262,7.641,17.262,16.03
		c0,1.725-0.211,3.425-0.763,5.075c-11.251,13.354-10.567,33.398,1.995,45.975c2.58,2.583,5.982,3.874,9.365,3.874
		c3.378,0,6.766-1.287,9.344-3.863c5.162-5.158,5.171-13.522,0.014-18.684c-2.768-2.77-2.951-7.154-0.563-10.143
		c1.959-1.386,4.923-2.834,8.768-2.834c8.57,0,15.545,7.188,15.545,16.024c0,4.348-1.824,7.692-3.355,9.731
		c-3.346,4.46-3.532,10.539-0.465,15.195c3.064,4.656,8.726,6.889,14.144,5.572c1.561-0.378,2.534-0.525,3.475-0.525
		c8.536,0,15.225,6.908,15.225,15.836c0,8-6.524,14.631-14.603,15.631h-92.777v-96.86C161.807,34.063,170.242,26.421,179.196,26.421
		z M42.2,107.85c0.902,0,1.789,0.138,3.388,0.525c5.417,1.311,11.075-0.914,14.144-5.568c3.067-4.653,2.884-10.731-0.459-15.192
		c-1.548-2.066-3.394-5.433-3.394-9.738c0-8.836,6.964-16.024,15.525-16.024c3.868,0,6.839,1.47,8.795,2.863
		c2.363,2.988,2.171,7.354-0.587,10.113c-5.156,5.162-5.152,13.525,0.01,18.684c2.579,2.576,5.957,3.863,9.337,3.863
		c3.383,0,6.766-1.291,9.346-3.874c12.575-12.586,13.212-32.654,1.931-46.011c-0.549-1.646-0.83-3.334-0.83-5.039
		c0-8.24,8.57-16.03,17.698-16.03c9.132,0,17.705,7.794,17.705,16.035v96.86H42.024c-8.24-1-14.894-7.631-14.894-15.631
		C27.129,114.758,33.75,107.85,42.2,107.85z M239.907,220.061c-0.611,19.703-24.358,50.256-54.658,50.256h-5.658
		c-0.52-7-6.206-12-13.159-12h-33.534c-6.953,0-12.639,5-13.159,12h-8.71c-31.264,0-53.739-20.467-54.655-49.961
		c-0.268-8.598-1.302-25.257-2.286-40.067c1.957,1.147,4.234,1.849,6.666,1.849c1.051,0,2.055-0.104,3.055-0.334v2.399
		c0,7.296,5.908,13.21,13.205,13.21c6.627,0,12.096-4.885,13.046-11.248c1.607,0.696,3.027,1.086,4.891,1.086
		c7.296,0,12.859-5.914,12.859-13.21v-8.724h91v12.788c0,7.296,5.704,13.211,13.001,13.211c7.295,0,12.999-5.915,12.999-13.211
		v-12.788h18.366C242.027,182.316,240.268,208.447,239.907,220.061z"/>
</g>
<g>
</g>
<g>
</g>
<g>
</g>
<g>
</g>
<g>
</g>
<g>
</g>
<g>
</g>
<g>
</g>
<g>
</g>
<g>
</g>
<g>
</g>
<g>
</g>
<g>
</g>
<g>
</g>
<g>
</g>
</svg>
