<?xml version="1.0" encoding="iso-8859-1"?>
<!-- Generator: Adobe Illustrator 18.0.0, SVG Export Plug-In . SVG Version: 6.00 Build 0)  -->
<!DOCTYPE svg PUBLIC "-//W3C//DTD SVG 1.1//EN" "http://www.w3.org/Graphics/SVG/1.1/DTD/svg11.dtd">
<svg version="1.1" id="Capa_1" xmlns="http://www.w3.org/2000/svg" xmlns:xlink="http://www.w3.org/1999/xlink" x="0px" y="0px"
	 viewBox="0 0 307.09 307.09" style="enable-background:new 0 0 307.09 307.09;" xml:space="preserve">
<path d="M240.872,226.245c1.885-10.585,2.854-22.014,2.854-34.151c0-12.171-0.974-23.63-2.869-34.24
	c-0.021-0.145-0.039-0.289-0.071-0.433c-3.262-17.987-9.199-33.5-17.627-45.796c-4.907-7.158-10.566-13.215-16.959-18.159
	c16.037-14.7,25.412-35.678,25.412-57.612c0-3.313-2.687-6-6-6c-16.841,0-32.826,5.487-45.905,14.996
	c-2.518-16.253-10.08-31.244-21.932-43.093c-2.345-2.342-6.143-2.343-8.485,0.001c-11.847,11.848-19.406,26.834-21.921,43.082
	c-13.076-9.502-29.057-14.986-45.895-14.986c-3.313,0-6,2.686-6,6c0,21.933,9.376,42.91,25.415,57.613
	c-6.393,4.943-12.052,11-16.959,18.158c-8.423,12.289-14.359,27.79-17.622,45.765c-0.041,0.179-0.065,0.358-0.089,0.54
	c-1.886,10.589-2.856,22.021-2.856,34.164c0,12.162,0.973,23.613,2.865,34.217c0.021,0.148,0.041,0.295,0.073,0.441
	c3.261,17.991,9.199,33.508,17.629,45.806c15.707,22.914,39.129,34.532,69.614,34.532c30.486,0,53.908-11.618,69.614-34.532
	c8.421-12.285,14.356-27.781,17.62-45.749C240.822,226.622,240.848,226.435,240.872,226.245z M231.726,192.094
	c0,7.167-0.364,14.041-1.057,20.613l-20.617-20.616l20.616-20.617C231.362,178.047,231.726,184.924,231.726,192.094z
	 M228.434,156.736l-26.866,26.869l-39.545-39.544l39.147-39.146c4.502,3.815,8.539,8.312,12.092,13.494
	C220.308,128.689,225.4,141.658,228.434,156.736z M193.083,192.092l-39.544,39.547l-39.545-39.548l39.544-39.544L193.083,192.092z
	 M149.179,89.189c0.003,0,0.006,0.001,0.01,0.001c0.007,0,0.014-0.002,0.021-0.002c1.426-0.062,2.869-0.097,4.335-0.097
	c14.434,0,26.994,2.98,37.599,8.881l-37.605,37.605l-37.601-37.6C125.46,92.676,136.561,89.735,149.179,89.189z M195.716,86.706
	c-8.613-4.573-18.278-7.521-28.959-8.829c10.224-19.972,30.13-33.541,52.544-35.707C217.621,59.45,209.123,75.558,195.716,86.706z
	 M153.534,14.9c9.299,11.224,14.561,25.07,15.064,39.748c-6.084,6.484-11.102,14.045-14.717,22.447
	c-0.112,0-0.223-0.004-0.335-0.004c-0.114,0-0.226,0.004-0.339,0.004c-3.617-8.407-8.637-15.971-14.725-22.457
	C138.98,39.965,144.239,26.122,153.534,14.9z M87.786,42.17c22.416,2.166,42.321,15.734,52.543,35.708
	c-10.679,1.308-20.343,4.255-28.956,8.828C97.964,75.555,89.466,59.447,87.786,42.17z M93.828,118.409
	c3.55-5.18,7.584-9.673,12.082-13.487l39.142,39.141l-39.543,39.543l-26.856-26.858C81.687,141.664,86.781,128.691,93.828,118.409z
	 M75.363,192.094c0-7.166,0.364-14.039,1.057-20.609l20.605,20.607l-20.606,20.605C75.727,206.128,75.363,199.257,75.363,192.094z
	 M78.652,227.432l26.857-26.857l39.545,39.549l-39.137,39.141c-4.5-3.816-8.537-8.311-12.089-13.492
	C86.78,255.49,81.686,242.517,78.652,227.432z M115.944,286.208l37.595-37.598l37.599,37.602
	c-10.604,5.899-23.162,8.877-37.593,8.877C139.11,295.09,126.549,292.109,115.944,286.208z M213.262,265.773
	c-3.554,5.185-7.592,9.681-12.096,13.497l-39.143-39.145l39.545-39.549l26.867,26.867
	C225.401,242.523,220.309,255.493,213.262,265.773z"/>
<g>
</g>
<g>
</g>
<g>
</g>
<g>
</g>
<g>
</g>
<g>
</g>
<g>
</g>
<g>
</g>
<g>
</g>
<g>
</g>
<g>
</g>
<g>
</g>
<g>
</g>
<g>
</g>
<g>
</g>
</svg>
