<?xml version="1.0" encoding="iso-8859-1"?>
<!-- Generator: Adobe Illustrator 17.1.0, SVG Export Plug-In . SVG Version: 6.00 Build 0)  -->
<!DOCTYPE svg PUBLIC "-//W3C//DTD SVG 1.1//EN" "http://www.w3.org/Graphics/SVG/1.1/DTD/svg11.dtd">
<svg version="1.1" id="Capa_1" xmlns="http://www.w3.org/2000/svg" xmlns:xlink="http://www.w3.org/1999/xlink" x="0px" y="0px"
	 viewBox="0 0 365.123 365.123" style="enable-background:new 0 0 365.123 365.123;" xml:space="preserve">
<g>
	<path d="M361.761,20.068c1.743-5.392,1.134-10.517-1.714-14.431C357.439,2.055,353.24,0,348.526,0
		c-1.893,0-3.865,0.327-5.861,0.972L32.438,101.215c-4.128,1.334-6.925,5.178-6.925,9.516c0,49.173,15.565,95.953,44.363,134.713
		l-56.697,56.697c-14.389,14.39-14.389,37.802,0,52.191c7.194,7.194,16.645,10.791,26.095,10.791
		c9.451,0,18.901-3.597,26.096-10.791l57.485-57.485c37.633,26.228,82.294,40.359,129.133,40.359c4.338,0,8.181-2.797,9.515-6.925
		l14.797-45.784c0.013-0.039,0.025-0.077,0.037-0.116L361.761,20.068z M259.372,271.843c-45.363,2.175-89.352-14.716-121.564-46.929
		c-32.215-32.214-49.106-76.203-46.929-121.565l248.946-80.442L259.372,271.843z M51.228,340.189c-6.59,6.592-17.315,6.592-23.906,0
		c-6.591-6.591-6.591-17.315,0-23.906l55.256-55.256c2.984,3.355,6.063,6.644,9.264,9.845c4.821,4.821,9.83,9.384,14.994,13.711
		L51.228,340.189z M244.752,317.081c-108.104-3.747-195.367-91.01-199.114-199.113l25.045-8.093
		c-0.339,48.323,18.536,94.736,52.982,129.182c34.142,34.143,80.039,52.99,127.904,52.989c0.426,0,0.853-0.011,1.279-0.014
		L244.752,317.081z"/>
	<path d="M176.011,173.417c0,3.55,1.382,6.888,3.892,9.396c2.511,2.512,5.849,3.895,9.4,3.895c3.552,0,6.89-1.384,9.398-3.894
		c0.749-0.75,2.146-2.145,9.868-14.935c2.377-3.936,1.763-8.987-1.489-12.24c-3.252-3.251-8.303-3.867-12.24-1.489
		c-12.789,7.722-14.185,9.116-14.936,9.867C177.393,166.529,176.011,169.867,176.011,173.417z"/>
	<path d="M236.047,211.422c0.688,0.108,1.388,0.164,2.082,0.164c6.577,0,12.096-4.717,13.124-11.211
		c0.167-1.048,0.476-2.998-0.795-17.885c-0.391-4.582-3.857-8.307-8.399-9.026c-4.546-0.716-8.99,1.752-10.778,5.989
		c-5.807,13.764-6.116,15.713-6.283,16.763c-0.555,3.506,0.288,7.018,2.374,9.89C229.459,208.979,232.539,210.867,236.047,211.422z"
		/>
	<path d="M164.422,137.886c0.694,0,1.395-0.056,2.082-0.164c1.048-0.166,2.998-0.475,16.763-6.282
		c4.237-1.788,6.708-6.235,5.989-10.778c-0.72-4.542-4.444-8.008-9.026-8.399c-1.156-0.099-11.405-0.964-15.347-0.964
		c-1.021,0-1.803,0.052-2.54,0.169c-7.237,1.149-12.192,7.972-11.044,15.205C152.326,133.169,157.845,137.886,164.422,137.886z"/>
</g>
<g>
</g>
<g>
</g>
<g>
</g>
<g>
</g>
<g>
</g>
<g>
</g>
<g>
</g>
<g>
</g>
<g>
</g>
<g>
</g>
<g>
</g>
<g>
</g>
<g>
</g>
<g>
</g>
<g>
</g>
</svg>
